<?xml version="1.0" standalone="no"?>
<!DOCTYPE svg PUBLIC "-//W3C//DTD SVG 1.1//EN" "http://www.w3.org/Graphics/SVG/1.1/DTD/svg11.dtd" >
<!--
2013-9-30: Created.
-->
<svg>
<metadata>
Created by iconfont
</metadata>
<defs>

<font id="iconfont" horiz-adv-x="1024" >
  <font-face
    font-family="iconfont"
    font-weight="500"
    font-stretch="normal"
    units-per-em="1024"
    ascent="896"
    descent="-128"
  />
    <missing-glyph />
    
    <glyph glyph-name="x" unicode="x" horiz-adv-x="1001"
d="M281 543q-27 -1 -53 -1h-83q-18 0 -36.5 -6t-32.5 -18.5t-23 -32t-9 -45.5v-76h912v41q0 16 -0.5 30t-0.5 18q0 13 -5 29t-17 29.5t-31.5 22.5t-49.5 9h-133v-97h-438v97zM955 310v-52q0 -23 0.5 -52t0.5 -58t-10.5 -47.5t-26 -30t-33 -16t-31.5 -4.5q-14 -1 -29.5 -0.5
t-29.5 0.5h-32l-45 128h-439l-44 -128h-29h-34q-20 0 -45 1q-25 0 -41 9.5t-25.5 23t-13.5 29.5t-4 30v167h911zM163 247q-12 0 -21 -8.5t-9 -21.5t9 -21.5t21 -8.5q13 0 22 8.5t9 21.5t-9 21.5t-22 8.5zM316 123q-8 -26 -14 -48q-5 -19 -10.5 -37t-7.5 -25t-3 -15t1 -14.5
t9.5 -10.5t21.5 -4h37h67h81h80h64h36q23 0 34 12t2 38q-5 13 -9.5 30.5t-9.5 34.5q-5 19 -11 39h-368zM336 498v228q0 11 2.5 23t10 21.5t20.5 15.5t34 6h188q31 0 51.5 -14.5t20.5 -52.5v-227h-327z" />
    

    
    <glyph glyph-name="gouwuchekong" unicode="&#58881;" d="M332.8 105.472q19.456 0 36.864-7.168t30.208-19.968 20.48-30.208 7.68-36.864-7.68-36.864-20.48-30.208-30.208-20.48-36.864-7.68q-20.48 0-37.888 7.68t-30.208 20.48-20.48 30.208-7.68 36.864 7.68 36.864 20.48 30.208 30.208 19.968 37.888 7.168zM758.784 103.424q19.456 0 37.376-7.168t30.72-19.968 20.48-30.208 7.68-36.864-7.68-36.864-20.48-30.208-30.72-20.48-37.376-7.68-36.864 7.68-30.208 20.48-20.48 30.208-7.68 36.864 7.68 36.864 20.48 30.208 30.208 19.968 36.864 7.168zM930.816 685.056q28.672 0 44.544-7.68t22.528-18.944 6.144-24.064-3.584-22.016-13.312-37.888-22.016-62.976-23.552-68.096-18.944-53.248q-13.312-40.96-33.28-56.832t-49.664-15.872l-35.84 0-65.536 0-86.016 0-96.256 0-253.952 0 14.336-92.16 517.12 0q49.152 0 49.152-41.984 0-20.48-9.728-35.84t-38.4-14.336l-49.152 0-94.208 0-118.784 0-119.808 0-99.328 0-55.296 0q-20.48 0-34.304 9.216t-23.04 24.064-14.848 32.256-8.704 32.768q-1.024 6.144-5.632 29.696t-11.264 58.88-14.848 78.848-16.384 87.552q-19.456 103.424-44.032 230.4l-76.8 0q-15.36 0-25.6 7.68t-16.896 18.432-9.216 23.04-2.56 22.528q0 20.48 13.824 33.792t37.376 12.288l103.424 0q20.48 0 32.768-6.144t19.456-15.36 10.24-18.944 5.12-16.896q2.048-8.192 4.096-23.04t4.096-30.208q3.072-18.432 6.144-38.912l700.416 0zM892.928 593.92l-641.024 2.048 35.84-185.344 535.552-1.024z"  horiz-adv-x="1028" />

    
    <glyph glyph-name="icon5" unicode="&#58885;" d="M696.902 428.862c11.321 0 22.484-0.816 33.566-2.051-30.145 139.499-180.207 243.137-351.525 243.137-191.504 0-348.378-129.719-348.378-294.439 0-95.093 52.203-173.172 139.408-233.73l-34.845-104.147 121.787 60.694c43.579-8.577 78.557-17.387 122.028-17.387 10.946 0 21.788 0.534 32.519 1.38-6.78 23.142-10.734 47.385-10.734 72.541-0.001 151.264 130.704 274.005 296.173 274.005zM509.591 522.734c26.247 0 43.602-17.146 43.602-43.2 0-25.943-17.356-43.347-43.602-43.347-26.087 0-52.308 17.402-52.308 43.347 0.001 26.055 26.22 43.2 52.308 43.2zM265.78 436.188c-26.113 0-52.469 17.402-52.469 43.347 0 26.054 26.356 43.2 52.469 43.2s43.47-17.146 43.47-43.2c0-25.945-17.355-43.347-43.47-43.347zM987.549 163.845c0 127.449-128.702 231.344-273.236 231.344-153.053 0-273.61-103.894-273.61-231.344 0-127.668 120.556-231.345 273.61-231.345 32.042 0 64.349 8.009 96.499 16.005l88.251-47.879-24.193 79.664c64.565 48.004 112.681 111.663 112.681 183.557zM625.611 203.745c-16.023 0-32.203 15.776-32.203 31.89 0 15.883 16.179 31.887 32.203 31.887 24.324 0 40.265-16.004 40.265-31.887-0.001-16.112-15.94-31.89-40.265-31.89zM802.535 203.745c-15.917 0-31.936 15.776-31.936 31.89 0 15.883 16.021 31.887 31.936 31.887 24.111 0 40.266-16.004 40.266-31.887 0-16.112-16.155-31.89-40.266-31.89z"  horiz-adv-x="1024" />

    
    <glyph glyph-name="daifukuan" unicode="&#58911;" d="M901.722-72.641c-6.227-6.231-13.838-9.339-22.834-9.339h-97.558c-8.991 0-16.605 3.111-22.83 9.339-6.227 6.227-9.339 13.838-9.339 22.834v129.729c0 8.991 3.111 16.691 9.339 23.093 6.226 6.4 13.838 9.597 22.83 9.597 8.995 0 16.695-3.202 23.094-9.597 6.403-6.403 9.605-14.097 9.605-23.094v-97.041h64.86c8.995 0 16.603-3.197 22.834-9.597 6.227-6.397 9.339-14.098 9.339-23.094 0-8.99-3.111-16.603-9.339-22.83v0zM956.873 33.843c-9.466 21.644-22.322 40.58-38.549 56.81-16.234 16.235-35.167 29.077-56.81 38.55-21.643 9.465-44.637 14.201-68.978 14.201-24.887 0-48.148-4.737-69.792-14.201-21.641-9.472-40.573-22.317-56.805-38.55-16.227-16.226-29.084-35.165-38.543-56.81-9.471-21.641-14.207-44.631-14.207-68.978 0-24.885 4.737-48.151 14.207-69.79 9.46-21.647 22.316-40.575 38.543-56.81 16.234-16.233 35.167-28.948 56.805-38.145 21.644-9.197 44.909-13.794 69.792-13.794 24.347 0 47.343 4.598 68.978 13.794 21.643 9.198 40.58 21.915 56.81 38.145 16.234 16.234 29.084 35.161 38.549 56.81 9.471 21.638 14.202 44.903 14.202 69.79 0 24.347-4.737 47.335-14.202 68.978v0zM191.626-98.98c-36.063 0-65.577 29.513-65.577 65.584v684.026c0 36.069 29.514 65.584 65.577 65.584h557.945c36.065 0 65.58-29.514 65.58-65.584v-454.365c25.925-3.119 50.515-10.581 73.012-21.643v483.44c0 72.142-59.023 131.164-131.162 131.164h-572.805c-72.141 0-131.162-59.022-131.162-131.164v-698.899c0-72.138 59.022-131.156 131.162-131.156h424.669c-17.088 21.52-30.373 46.198-38.836 73.013l-378.402-0.001zM623.111 626.238h70.907l-166.431-284.889h131.952v-57.786h-160.971v-91.924h160.97v-53.424h-159.938v-136.633h-66.698v136.633h-165.59v53.424h165.59v91.924h-165.59v57.786h142.185l-167.914 284.889h73.679c77.479-141.506 136.948-231.222 153.634-269.153l154.211 269.153z"  horiz-adv-x="1024" />

    
    <glyph glyph-name="right" unicode="&#58919;" d="M314.368 806.88 188.416 681.952 598.016 304.096 203.776-85.024 322.56-206.88 835.584 298.976Z"  horiz-adv-x="1024" />

    
    <glyph glyph-name="shouhou" unicode="&#59007;" d="M510.971577 632.059791c-142.604882 0-258.638595-117.913527-258.638595-262.841314 0-144.918577 116.033713-262.83722 258.638595-262.83722 142.609998 0 258.638595 117.91762 258.638595 262.83722C769.610172 514.146265 653.580552 632.059791 510.971577 632.059791L510.971577 632.059791zM510.971577 151.436406c-118.161167 0-214.298737 97.704253-214.298737 217.781048 0 120.081912 96.137571 217.785142 214.298737 217.785142s214.303854-97.704253 214.303854-217.785142C725.274408 249.140659 629.132744 151.436406 510.971577 151.436406L510.971577 151.436406zM761.266134 143.840404l-13.688767 7.344269-11.502985-10.499122c-55.258535-50.431599-137.313366-79.356372-225.102804-79.356372-87.802742 0-169.845293 28.925796-225.089501 79.356372l-11.512195 10.499122-13.670348-7.344269c-113.091708-60.810994-160.726611-134.017296-169.919994-261.098623-0.906649-12.401448 8.277524-23.200398 20.484543-24.116257 0.544399-0.049119 1.096984-0.062422 1.641383-0.062422 11.512195 0 21.23565 9.042957 22.094204 20.860097 7.729032 106.998943 43.034119 165.41233 133.323495 217.303164 62.708204-51.311643 150.148695-80.462566 242.649436-80.462566 92.505857 0 179.941232 29.150924 242.653529 80.475869 90.266863-51.891857 125.58116-110.317525 133.305075-217.293955 0.898463-12.409634 11.42726-21.859867 23.735587-20.820188 12.211113 0.898463 21.391193 11.714809 20.488637 24.116257C921.961022 9.809805 874.322026 83.012014 761.266134 143.840404L761.266134 143.840404zM215.377302 264.086046 215.377302 462.488745C247.678986 600.8203 367.980909 698.400732 511.581468 698.400732c142.05639 0 261.165138-95.571682 294.979268-231.509724l0-200.521966 0-0.061398c59.116399 0 104.096846 47.418986 104.096846 105.901958 0 41.874713-23.846104 77.967746-58.651818 95.151104C816.966737 628.874239 678.010965 743.455881 511.581468 743.455881c-166.301584 0-305.199027-114.400516-340.348572-275.742135-35.172057-16.998139-59.261709-53.29788-59.261709-95.505167C111.970164 313.725606 157.313885 264.086046 215.377302 264.086046L215.377302 264.086046zM215.377302 264.086046"  horiz-adv-x="1024" />

    
    <glyph glyph-name="fenlei" unicode="&#58907;" d="M358.4 691.2 102.4 691.2C87.04 691.2 76.8 701.44 76.8 716.8l0 0c0 15.36 10.24 25.6 25.6 25.6l256 0c15.36 0 25.6-10.24 25.6-25.6l0 0C384 701.44 373.76 691.2 358.4 691.2zM358.4 332.8 102.4 332.8c-15.36 0-25.6 10.24-25.6 25.6l0 0c0 15.36 10.24 25.6 25.6 25.6l256 0c15.36 0 25.6-10.24 25.6-25.6l0 0C384 343.04 373.76 332.8 358.4 332.8zM921.6-28.16 102.4-28.16c-15.36 0-25.6 10.24-25.6 25.6l0 0c0 15.36 10.24 25.6 25.6 25.6l819.2 0c15.36 0 25.6-10.24 25.6-25.6l0 0C947.2-15.36 936.96-28.16 921.6-28.16zM965.12 207.36 814.08 358.4c56.32 43.52 94.72 115.2 94.72 192C908.8 686.08 798.72 793.6 665.6 793.6s-243.2-110.08-243.2-243.2S532.48 307.2 665.6 307.2c35.84 0 71.68 7.68 102.4 23.04l161.28-161.28c10.24-10.24 25.6-10.24 35.84 0l0 0C975.36 181.76 975.36 197.12 965.12 207.36zM473.6 550.4C473.6 657.92 560.64 742.4 665.6 742.4s192-87.04 192-192S770.56 358.4 665.6 358.4 473.6 445.44 473.6 550.4z"  horiz-adv-x="1024" />

    
    <glyph glyph-name="fenlei1" unicode="&#58956;" d="M0 90.715l146.643 0 0-146.643L0-55.928 0 90.715zM0 457.321l146.643 0 0-146.643L0 310.678 0 457.321zM0 823.928l146.643 0 0-146.643L0 677.285 0 823.928zM293.285 90.715l733.213 0 0-146.643L293.285-55.928 293.285 90.715zM293.285 457.321l733.213 0 0-146.643L293.285 310.678 293.285 457.321zM293.285 823.928l733.213 0 0-146.643L293.285 677.285 293.285 823.928z"  horiz-adv-x="1027" />

    
    <glyph glyph-name="shouhuodizhi" unicode="&#58906;" d="M493.568 270.984533l21.981867-18.466133 21.981866 18.466133c24.234667 20.411733 236.8512 203.1616 236.8512 339.217067 0 142.7456-116.1216 258.833067-258.833066 258.833067-142.7456 0-258.833067-116.1216-258.833067-258.833067 0-136.055467 212.616533-318.805333 236.8512-339.217067z m21.981867 529.8176a190.805333 190.805333 0 0 0 190.5664-190.5664c0-71.9872-109.090133-194.525867-190.600534-267.844266-81.5104 73.250133-190.5664 195.720533-190.5664 267.844266a190.805333 190.805333 0 0 0 190.600534 190.5664zM999.287467 97.0752c-0.7168 116.974933 0.375467 496.298667-0.4096 506.6752a25.6 25.6 0 0 1-24.712534 24.541867c-12.253867 0.170667-27.374933-11.707733-27.374933-11.707734l-116.736-90.453333a34.0992 34.0992 0 1 1 41.7792-53.9648l58.743467 45.499733v-422.570666l-215.415467-123.050667-355.089067 186.948267s-11.264 6.894933-22.016 6.417066c-9.591467-0.443733-20.343467-8.226133-20.343466-8.226133L92.945067 27.648V401.339733l102.024533 79.36a34.133333 34.133333 0 0 1-41.8816 53.896534s-102.775467-80.1792-113.8688-88.576c-5.188267-4.676267-9.250133-8.9088-12.014933-17.783467-1.706667-5.5296-2.730667-20.241067-2.730667-27.204267 0-59.733333-0.512-389.085867 0.136533-437.3504 0.2048-15.291733 7.5776-23.483733 12.151467-27.204266 6.178133-4.983467 18.670933-9.591467 29.969067-2.730667 10.4448 6.3488 274.363733 157.969067 274.363733 157.969067l349.627733-184.081067s15.36-6.382933 26.043734-6.382933c3.1744 0 5.973333 0.682667 8.8064 1.2288 0.6144 0.034133 1.297067 0.170667 1.979733 0.273066 0.9216 0.238933 2.013867 0.443733 2.935467 0.7168 2.833067 0.750933 6.2464 2.048 11.6736 5.085867 63.863467 36.283733 225.621333 128.2048 234.9056 134.3488 6.587733 4.369067 12.765867 9.284267 17.066666 17.271467 5.700267 10.717867 5.256533 19.8656 5.154134 36.898133z"  horiz-adv-x="1024" />

    
    <glyph glyph-name="faxian" unicode="&#58894;" d="M512-128C230.4-128 0 102.4 0 384S230.4 896 512 896c60.8 0 120-11.2 176-32l-11.2-30.4C624 852.8 568 864 512 864 248 864 32 648 32 384s214.4-480 480-480c264 0 480 214.4 480 480 0 115.2-41.6 225.6-115.2 312l24 20.8c80-92.8 123.2-211.2 123.2-334.4C1024 102.4 793.6-128 512-128zM670.4 68.8L516.8 368l-326.4 27.2L844.8 876.8 670.4 68.8z m-392 352L537.6 400l121.6-233.6L793.6 800 278.4 420.8z"  horiz-adv-x="1024" />

    
    <glyph glyph-name="shangpin" unicode="&#59637;" d="M790.12-114.863H233.904c-65.306 0-92.497 46.856-97.78 71.63-2.89 16.249-67.334 377.446-80.68 476.557-4.866 36.214 1.919 65.125 20.101 85.935 17.29 19.737 44.567 30.621 76.814 30.621 7.453 0 13.374-0.582 16.6-0.997h686.109c3.224 0.419 9.145 0.997 16.595 0.997 32.252 0 59.524-10.884 76.79-30.635 18.213-20.796 24.968-49.707 20.103-85.921-13.319-99.097-77.764-460.307-80.486-475.64-5.451-25.69-32.64-72.547-97.948-72.547z m-637.762 607.81c-9.032 0-25.438-1.464-33.944-11.176-8.619-9.845-8.314-27.652-6.533-40.87 13.152-97.89 79.455-469.468 80.125-473.207 1.33-4.922 9.147-25.619 41.897-25.619h556.218c36.033 0 41.844 25.453 42.062 26.535 0.504 2.822 66.807 374.4 79.93 472.29 1.782 13.218 2.086 31.025-6.504 40.87-8.51 9.715-24.91 11.175-33.948 11.175-5.421 0-9.255-0.513-10.005-0.628a30.543 30.543 0 0 0-4.59-0.375H166.953c-1.583 0-3.17 0.143-4.753 0.403-0.555 0.083-4.422 0.601-9.843 0.601zM232.4 341.443c0-15.575 6.415-31.054 17.427-42.068 11.014-11.013 26.494-17.422 42.067-17.422 15.575 0 31.055 6.41 42.068 17.422 11.013 11.014 17.422 26.493 17.422 42.068s-6.409 31.053-17.422 42.067c-11.013 11.014-26.493 17.422-42.068 17.422-15.573 0-31.053-6.408-42.067-17.422-11.012-11.014-17.427-26.492-17.427-42.067z m440.237 0c0-15.575 6.41-31.054 17.423-42.068 11.012-11.013 26.492-17.422 42.067-17.422 15.574 0 31.054 6.41 42.068 17.422 11.012 11.014 17.422 26.493 17.422 42.068s-6.411 31.053-17.422 42.067c-11.014 11.014-26.494 17.422-42.068 17.422-15.575 0-31.055-6.408-42.067-17.422-11.014-11.014-17.423-26.492-17.423-42.067z m93.214 247.177c-15.736 0-28.468 12.747-28.468 28.47C737.384 731.508 636.267 824.6 512 824.6c-124.273 0-225.359-93.092-225.359-207.51 0-15.723-12.734-28.47-28.469-28.47-15.737 0-28.47 12.747-28.47 28.47C229.702 762.91 356.337 881.537 512 881.537c155.66 0 282.32-118.628 282.32-264.448 0-15.722-12.73-28.469-28.468-28.469z m0 0"  horiz-adv-x="1024" />

    
    <glyph glyph-name="dianpu" unicode="&#58937;" d="M384-5.312V128s0 64 64 64h128c64 0 64-64 64-64v-160h192V293.568c-13.952-3.328-28.352-5.056-43.2-5.056-51.456 0-100.672 21.568-137.92 59.2A194.752 194.752 0 0 0 512.256 288c-51.584 0-100.928 21.696-138.304 59.456C336.64 309.632 287.232 288 235.712 288A186.24 186.24 0 0 0 192 293.184V-32h192zM576-32V128H448v-160h128zM128 321.92c-57.6 39.552-96 109.824-96 189.76 0 12.672 1.28 19.456 3.712 25.984L144.576 824.512C149.76 846.272 171.648 864 196.608 864h630.016c25.024 0 46.848-17.728 53.184-43.136l108.416-283.072C990.72 531.2 992 524.352 992 517.44c0-83.648-38.4-155.136-96-195.072V-32s0-64-64-64H192c-64 0-64 64-64 64V321.92z m245.952 134.144l26.688-40.384C427.008 375.808 468.736 352 512.256 352c43.776 0 85.568 23.936 111.808 64l26.624 40.704 26.816-40.64c26.24-39.808 67.904-63.552 111.296-63.552 76.736 0 139.2 71.36 139.2 159.104L819.52 800h-616L95.552 514.944C96 423.616 158.656 352 235.712 352c43.52 0 85.248 23.808 111.552 63.68l26.688 40.384z"  horiz-adv-x="1024" />

    
    <glyph glyph-name="aixin" unicode="&#58882;" d="M1013.8 544.6c0 169.4-131.3 307.2-292.4 307.2-79.6 0-154.9-34.8-209.3-94.1-54.6 59.3-129.9 94.1-209.4 94.1-161.2 0-292.4-137.7-292.4-307.2 0-5.7 0.5-10.8 1-14.9-0.1-1.4-0.2-2.7-0.2-4.2 0-30 7.2-62.9 21.3-98 0.5-1.3 0.9-2.5 1.4-3.6 89.1-216.4 432.1-465.3 446.7-476.8 9.1-7.1 19.8-10.5 30.7-10.5 11 0 21.8 3.6 31 10.8 12.5 9.9 305 223 421.2 424.8 4.4 6.8 7.7 13.4 10.7 19.1 0.9 1.8 1.7 3.6 2.7 5.4l0.4 0.8c0.4 0.7 0.8 1.4 1.3 2 7 13.7 12.5 26.5 16.9 38.9 12 32 18 60.4 18 87 0 2-0.1 3.9-0.2 5.4 0.2 3.5 0.6 8.2 0.6 13.8z"  horiz-adv-x="1024" />

    
    <glyph glyph-name="fenxiang" unicode="&#58898;" d="M768.8 192.4c-35.6 0-68-14.8-91.2-38.4l-309.2 171.6c9.2 17.6 14.6 37.2 14.6 58.4 0 12.6-2.4 24.4-5.6 36L682 609.2c22.8-20.4 52.4-33.2 85.2-33.2 70.6 0 128 57.4 128 128s-57.4 128-128 128-128-57.4-128-128c0-14.6 3-28.4 7.4-41.4l-301.8-187.4c-23 22.8-54.8 37-89.8 37-70.6 0-128-57.4-128-128s57.4-128 128-128c25.6 0 49.6 7.8 69.4 20.8l321.2-178.4c-3-11-5.2-22.2-5.2-34 0-70.6 57.4-128 128-128s128 57.4 128 128-57.2 127.8-127.6 127.8z"  horiz-adv-x="1024" />

    
    <glyph glyph-name="lianxi" unicode="&#58923;" d="M552.634182 499.223273c12.264727-12.218182 19.362909-29.416727 19.362909-46.685091a66.792727 66.792727 0 0 0-19.362909-46.731637 66.792727 66.792727 0 0 0-46.661818-19.362909 66.909091 66.909091 0 0 0-46.731637 19.362909 66.955636 66.955636 0 0 0-19.362909 46.731637c0 17.268364 7.144727 34.443636 19.362909 46.685091a66.792727 66.792727 0 0 0 46.731637 19.386182c17.291636 0 34.443636-7.121455 46.661818-19.386182z m166.446545 19.386182c-17.314909 0-34.490182-7.144727-46.731636-19.386182a67.025455 67.025455 0 0 1-19.316364-46.685091c0-17.314909 7.144727-34.466909 19.316364-46.731637a66.909091 66.909091 0 0 1 46.731636-19.362909 67.025455 67.025455 0 0 1 46.731637 19.362909c12.218182 12.241455 19.316364 29.416727 19.316363 46.731637 0 17.268364-7.098182 34.443636-19.316363 46.685091a66.792727 66.792727 0 0 1-46.731637 19.386182z m-412.951272 0c-17.268364 0-34.443636-7.144727-46.685091-19.386182a66.885818 66.885818 0 0 1-19.362909-46.685091c0-17.314909 7.144727-34.466909 19.362909-46.731637a66.885818 66.885818 0 0 1 46.685091-19.362909c17.338182 0 34.490182 7.144727 46.731636 19.362909a66.839273 66.839273 0 0 1 19.362909 46.731637c0 17.268364-7.121455 34.443636-19.362909 46.685091a66.722909 66.722909 0 0 1-46.731636 19.386182z m670.324363-64.325819c0-202.170182-217.367273-386.56-469.061818-385.652363-6.865455-1.931636-13.474909-3.979636-19.758545-6.306909l-181.248-138.449455a44.986182 44.986182 0 0 0-22.388364-5.306182c-13.102545-0.442182-27.066182 7.656727-35.118546 21.76l-54.923636 196.119273a239.918545 239.918545 0 0 0-4.072727 8.750545c-104.261818 73.146182-142.336 196.724364-142.336 315.508364C47.546182 671.278545 255.464727 849.454545 512 849.454545c256.488727 0 464.453818-184.576 464.453818-395.170909z m-65.908363-0.837818C910.498909 634.181818 732.090182 784.523636 512 784.523636c-220.066909 0-398.522182-143.988364-398.522182-324.677818 0-107.869091 35.444364-220.834909 133.957818-283.322182 0 0 2.420364-2.024727 3.816728-8.005818 1.861818-7.773091 43.822545-176.267636 43.822545-176.267636s150.714182 124.672 156.090182 126.836363c5.399273 2.210909 18.432 3.607273 25.437091 3.607273 220.043636 0.023273 433.943273 150.085818 433.943273 330.752z"  horiz-adv-x="1024" />

    
    <glyph glyph-name="jinrudianpu" unicode="&#58886;" d="M831.96 772.293l-7.089 10.636h-609.94l-7.138-9.11C52.392 575.382 73.85 454.563 100.522 400.163c26.67-54.492 80.763-89.755 137.863-89.755h5.118c71.984 2.862 119.833 38.596 145.072 64.493 22.774-25.898 65.621-60.503 132.746-60.503 69.94 0 113.61 37.682 135.446 63.838 30.542-24.887 90.132-65.669 152.558-65.669 40.996 0 76.026 16.787 104.62 49.868 106.004 123.447-74.286 398.236-81.985 409.858z m2.066-489.004c-13.289 0-24.064-10.752-24.111-24.018v-173.565c0-26.67-21.623-48.27-48.226-48.27H267.287c-26.6 0-48.224 21.6-48.224 48.27V259.201c-0.024 13.313-10.824 24.088-24.089 24.088-13.312 0-24.066-10.775-24.112-24.088v-178.329c0-50.665 40.993-91.705 91.612-91.705h504.03c50.618 0 91.61 41.04 91.61 91.705v178.4c-0.07 13.265-10.8 24.017-24.088 24.017z"  horiz-adv-x="1024" />

    
    <glyph glyph-name="daishouhuo" unicode="&#58903;" d="M735.744 181.248c-66.048 0-121.856-45.056-136.704-109.568l-2.048-9.728H431.616l-2.048 9.728c-14.848 65.024-71.68 109.568-136.704 109.568-77.824 0-140.8-63.488-140.8-142.336-1.536-78.848 61.44-142.848 139.264-142.848 62.976 0 118.784 43.52 135.68 105.472l2.56 9.728h167.424l2.56-9.728c16.384-61.952 72.704-104.96 135.68-104.96 77.824 0 140.8 63.488 140.8 142.336 1.024 78.848-62.464 142.336-140.288 142.336z m-444.416-234.496c-50.176 0-91.136 41.472-91.136 91.648 0 50.688 40.96 91.648 91.136 91.648s91.136-41.472 91.136-91.648c0-50.688-40.448-91.648-91.136-91.648z m443.904 0c-50.176 0-91.136 41.472-91.136 91.648 0 50.688 40.96 91.648 91.136 91.648s91.136-41.472 91.136-91.648c0-50.176-40.96-91.648-91.136-91.648zM174.08 313.344h150.016c13.824 0 25.088 11.264 25.088 25.6V489.472c0 13.824-11.264 25.6-25.088 25.6s-25.088-11.264-25.088-25.6V363.52H174.08c-13.824 0-25.088-11.264-25.088-25.6 0.512-13.312 11.264-24.576 25.088-24.576zM925.184 854.528H380.416c-44.544 0-81.408-36.352-81.408-81.92V655.36l-235.52-118.784c-1.024-0.512-2.048-1.024-3.072-2.048C21.504 507.392 0 464.384 0 413.184v-380.416c0-13.824 11.264-25.088 25.088-25.088s25.088 11.264 25.088 25.088V413.184c0 33.792 12.288 59.904 36.352 78.336l2.048 1.024 246.272 124.416c1.024 1.024 2.048 1.536 3.072 2.56l1.024 0.512c1.536 1.024 2.56 1.536 3.072 2.56 0.512 0.512 1.024 1.536 1.536 2.56l1.536 3.072c0.512 1.024 1.536 2.048 1.536 2.56 0.512 0.512 0.512 2.048 0.512 3.584v1.536c0 1.536 0.512 2.56 1.024 3.584V773.632c0 16.896 13.824 31.232 31.232 31.232h544.768c27.648 0 49.664-22.528 49.664-50.688v-717.312c0-13.824 11.264-25.6 25.088-25.6s25.088 11.264 25.088 25.6v716.8c0.512 55.296-43.52 100.864-98.816 100.864z"  horiz-adv-x="1024" />

    
    <glyph glyph-name="back" unicode="&#58883;" d="M702.014-108.075l79.743 79.743c2.752 2.752 4.352 6.527 4.352 10.43s-1.536 7.677-4.352 10.43l-348.736 348.799 348.799 348.799c2.752 2.752 4.352 6.527 4.352 10.43s-1.536 7.682-4.352 10.43l-79.743 79.743c-5.761 5.759-15.104 5.759-20.866 0l-439.040-438.976c-2.752-2.752-4.285-6.527-4.285-10.433s1.536-7.682 4.352-10.433l438.976-438.976c5.696-5.759 15.040-5.759 20.8 0z"  horiz-adv-x="1024" />

    
    <glyph glyph-name="daipingjia" unicode="&#58901;" d="M502.303 733.783h-296.69c-66.848 0-119.252-51.169-119.252-116.366v-552.526c0-31.36 11.969-59.007 34.662-78.814 21.458-19.392 51.58-29.708 84.59-29.708h550.875c32.188 0 59.011 10.316 77.578 29.297 18.569 19.393 28.059 46.628 28.059 79.226l-0.823 350.331c0 11.143-7.841 19.807-18.571 19.807-10.728 0-18.567-8.25-18.567-19.807V64.48c0-39.2-30.948-71.386-68.499-71.386H205.201c-18.569 0-39.614 7.841-55.292 21.046-17.333 14.028-27.235 32.598-27.235 50.752V617.417c0 18.568 9.902 38.375 27.235 54.469 16.504 15.679 37.136 25.17 55.704 25.17h296.69c11.14 0 19.806 7.841 19.806 18.569 0.001 10.73-8.665 18.158-19.806 18.158zM917.419 595.959c27.233 27.647 27.646 76.752 0 103.987l-89.956 90.368c-12.379 12.792-30.949 20.219-50.755 20.219-18.981 0-37.55-7.427-50.755-19.807l-73.036-86.655-389.945-373.44-25.174-218.699 7.018-6.189 212.92 28.887L830.35 525.4l87.069 70.559z m-164.23 167.12c6.189 6.189 14.441 9.492 23.52 9.492s17.332-3.303 23.521-9.492l89.954-89.955c12.792-12.792 12.792-34.25 0-47.042l-56.943-56.946-136.585 137 56.533 56.943zM285.665 153.196l7.841 128.745L412.346 163.1l-126.681-9.904z m513.739 392.422L443.296 186.621 314.964 315.362l359.41 358.175 126.269-126.268-1.239-1.651z"  horiz-adv-x="1024" />

    
    <glyph glyph-name="daifukuan1" unicode="&#58952;" d="M807.253333 546.133333H237.175467c-12.526933 0-24.0128-10.453333-24.0128-24.046933 0-13.585067 10.436267-24.0384 24.0128-24.0384h570.094933c12.526933 0 24.0128 10.453333 24.0128 24.0384 0 13.5936-11.485867 24.046933-24.0128 24.046933z m0 153.6H237.175467c-12.526933 0-24.0128-10.453333-24.0128-24.046933 0-12.544 10.436267-24.0384 24.0128-24.0384h570.094933c12.526933 0 24.0128 10.453333 24.0128 24.0384C833.3568 687.189333 819.7888 699.733333 807.253333 699.733333z m13.021867 196.266667H59.733333v-882.218667C59.733333-64.981333 120.576-128 199.253333-128h333.585067a24.055467 24.055467 0 0 1 22.033067 24.149333 24.055467 24.055467 0 0 1-22.033067 24.1664H197.154133c-48.256 0-89.173333 42.0096-89.173333 92.416v832.853334h712.2944c48.247467 0 89.1648-42.0096 89.1648-92.416v-369.698134c0-13.653333 11.537067-25.198933 25.173333-25.198933s25.173333 11.5456 25.173334 25.198933V753.169067C960.836267 831.931733 898.944 896 820.266667 896zM827.101867 62.592a18.858667 18.858667 0 0 1 18.824533 18.8416 18.858667 18.858667 0 0 1-18.824533 18.833067H761.173333V208.5888a18.858667 18.858667 0 0 1-18.824533 18.833067 18.858667 18.858667 0 0 1-18.824533-18.833067V100.266667h-2.474667a18.858667 18.858667 0 0 1-18.824533-18.833067 18.858667 18.858667 0 0 1 18.824533-18.8416h2.474667v-2.4832a18.858667 18.858667 0 0 1 18.824533-18.8416c0.6912 11.264 0.6912 16.896 0 16.896v-16.896a18.858667 18.858667 0 0 1 18.824533 18.8416v2.4832h65.92zM752.9472 320.529067c-116.7104 0-211.319467-94.72-211.319467-211.566934 0-116.855467 94.609067-211.575467 211.319467-211.575466 46.762667 0 91.255467 15.266133 127.7184 43.008 4.4288 3.362133 5.290667 9.685333 1.928533 14.114133a10.0608 10.0608 0 0 1-14.1056 1.928533 190.122667 190.122667 0 0 0-115.541333-38.894933c-105.6 0-191.197867 85.700267-191.197867 191.419733 0 105.710933 85.597867 191.419733 191.197867 191.419734 105.591467 0 191.197867-85.7088 191.197867-191.419734 0-39.150933-11.758933-76.5184-33.390934-108.100266a10.077867 10.077867 0 0 1 2.6112-14.011734 10.052267 10.052267 0 0 1 13.994667 2.6112A210.773333 210.773333 0 0 1 964.266667 108.970667c0 116.846933-94.609067 211.566933-211.319467 211.566933"  horiz-adv-x="1024" />

    
    <glyph glyph-name="daishouhuo1" unicode="&#58934;" d="M168.34197300000005-82.84847100000002c-23.387274 0-45.78253699999999 8.953105-62.202729 25.871303-16.919198 16.924198-25.879303 38.816455-25.879303 62.211729V478.483107h-4.974059c-15.429181 0-29.86135 5.97507-40.310472 16.919198-10.949128 10.947128-16.919198 25.380297-16.919198 40.809479V754.671344c0 23.393274 8.955105 45.783537 25.879303 62.203729C60.854713000000004 833.799271 82.74697000000003 842.754376 106.13924400000002 842.754376h810.6475c23.388273999999996 0 45.785537-8.955105 62.205729-25.878303 16.917198-16.919198 25.877303-38.811455 25.877303-62.203729v-218.45955999999998c0-15.429181-5.97507-29.86135-16.921198-40.809478-10.944128-10.945128-25.376297-16.919198-40.306473-16.919199h-4.980058v-472.75354c0-23.393274-8.957104999999999-45.783537-25.875303-62.209729-16.918198-16.918198-38.815455-25.873302999999996-62.202729-25.873302999999996H168.34197300000005v-0.49600599999999995z m-35.332414 88.083032c0-9.461111 3.982047-18.416216 10.450122-25.383297 6.967082-6.965082 15.927187-10.451122 25.380298-10.451123h686.237041c4.980058 0 9.458111 0.998012 13.934164 2.986035 4.482053 1.988023 8.464099 4.480053 11.448134 7.963094 3.481041 3.484041 5.97707 7.465087 7.965093 11.93914 1.986023 4.480053 2.486029 8.961105 2.486029 13.934162999999998l0.498006 472.75954h-758.398887v-473.747552zM953.114169 530.73572V754.671344c0 9.454110999999997-3.979047 18.414216-10.452122 25.381297-6.965082 6.967082-15.921187 10.450122-25.377298 10.450123H106.13924400000002c-9.454110999999997 0-18.413216-3.483041-25.381298-10.450123-6.967082-6.967082-10.450122-15.927187-10.450122-25.381297v-223.438619l882.8063449999999-0.497005z m0 0M168.34197300000005-72.89935400000013c-20.900245 0-40.306472 7.965093-55.236647999999995 22.889268-14.930175 14.930175-22.892268 34.342402-22.892268 55.244647V488.435224H75.28588200000002c-12.443145999999999 0-24.383286 4.979058-33.34339 13.934162999999998-8.955105 8.959105-13.934162999999998 20.900245-13.934164 33.842397V754.671344c0 20.900245 7.964092999999999 40.312472 22.894269 55.236647 14.925175 14.930175 34.336402 22.895268 55.236647 22.895268h810.6475c20.901245 0 40.307472-7.964092999999999 55.236647-22.895268 14.931175-14.925175 22.892268-34.336402 22.892268-55.236647v-218.45955999999998c0-12.942152-4.976058-24.883292-13.937163-33.842397-8.955105-8.955105-20.900245-13.934162999999998-33.336391-13.934162999999998H932.71093v-482.704657c0-20.906245-7.958092999999999-40.31347199999999-22.888268-55.242647-14.931175-14.924175-34.339402-22.887268-55.238647-22.887268H168.34197300000005v-0.500006z m-45.284531 78.133915c0-12.445146 4.978058-23.89328 13.435158-32.348379 8.960105-8.465099 20.402239-13.438157 32.347379-13.438157h686.237041c5.97507 0 12.445146 0.9920119999999999 17.91521 3.482041 5.477064 2.486029 10.452122 5.473064 14.931175 9.955116 4.482053 4.479052 7.963093 9.451111 9.954117 15.426181 2.491029 5.473064 3.481041 11.443134 3.481041 17.418204l0.498006 482.704657h-778.799127v-483.19966299999993zM106.13924400000002 800.45588c-12.444146 0-23.88628-4.974058-32.348379-13.436157-8.955105-8.462099-13.934162999999998-19.904233-13.934164-32.348379v-233.390735l903.2115849999999-0.498006V754.671344c0 12.444146-4.979058 23.88628-13.438158 32.348379-8.958105 8.461099-20.403239 13.436157-32.346379 13.436157H106.13924400000002z m0 0M388.29655 183.882655c-23.387274 0-45.781537 8.959105-62.203729 25.875303-16.918198 16.920198-25.878303 38.818455-25.878303 62.207729s8.960105 45.779536 25.878303 62.205729c16.919198 16.918198 38.816455 25.877303 62.203729 25.877303h234.385747c23.388273999999996 0 45.785537-9.457111 62.203729-25.877303 16.919198-16.924198 25.879303-38.816455 25.879303-62.205729s-8.960105-45.785537-25.879303-62.207729c-16.916198-16.916198-38.815455-25.875303-62.203729-25.875303H388.29655z m0 124.40945799999999c-9.453111 0-18.413216-3.980047-25.379297-10.949129-6.967082-6.967082-10.949128-15.922187-10.949128-25.879303 0-9.951117 3.982047-18.906222 10.450122-25.873302999999996 6.968082-6.967082 15.927187-10.451122 25.381298-10.451122H622.187291c9.451111 0 18.411215999999996 3.982047 25.381298 10.451122 6.967082 6.967082 10.448121999999998 15.922187 10.448121999999998 25.873302999999996 0 9.957117-3.979047 18.912222-10.448121999999998 25.879303-6.970081999999999 6.969082-15.930187 10.449122-25.381298 10.449123H388.29655v0.500006z m0 0M388.29655 193.83577200000002c-20.900245 0-40.306472 7.957093-55.236647 22.889268-14.930175 14.932175-22.893268 34.336402-22.893268 55.240647 0 20.896245 7.963093 40.309472 22.893268 55.238647 14.930175 14.924175 34.336402 22.889268 55.236647 22.889269h234.385747c20.901245 0 40.309472-8.463099 55.238647-22.889269 14.931175-14.930175 22.895268-34.342402 22.895269-55.238647 0-20.904245-7.964092999999999-40.309472-22.895269-55.240647-14.930175-14.932175-34.337402-22.889268-55.238647-22.889268H388.29655z m0 124.407457c-11.94514 0-23.387274-4.971058-32.347379-13.932163-8.955105-8.957104999999999-13.435157-20.402239-13.435157-32.848385 0-12.439146 4.977058-23.88528 13.435157-32.840385 8.461099-8.961105 20.402239-13.434157 32.347379-13.434157h234.385747c12.438146 0 23.88628 4.971058 32.348379 13.434157 8.459099 8.955105 13.438157 20.400239 13.438158 32.840385 0 12.445146-4.979058 23.89128-13.438158 32.848385-8.462099 8.961105-20.402239 13.434157-32.348379 13.434158H388.29655v0.498005z m0 0"  horiz-adv-x="1024" />

    
    <glyph glyph-name="youhua" unicode="&#59011;" d="M622.011961 383.985063L110.026899-128 60.495376-78.498352l462.483414 462.483415L60.495376 846.498352 110.026899 896l511.985062-512.014937z m0 0M963.47475 383.985063L451.459813-128 401.958164-78.498352l462.483415 462.483415L401.958164 846.498352 451.459813 896l512.014937-512.014937z m0 0"  horiz-adv-x="1024" />

    
    <glyph glyph-name="shoucang" unicode="&#58880;" d="M707.584 802.816c-77.312 0-148.992-38.912-196.608-102.912-47.104 64-119.296 102.912-196.608 102.912-139.264 0-252.416-123.904-252.416-275.968 0-90.624 40.448-154.624 73.216-205.824C229.888 172.03200000000004 468.48-12.799999999999955 478.72-20.480000000000018c9.728-7.68 20.992-11.264 32.256-11.264s22.528 3.584 32.256 11.264c10.24 7.68 248.32 193.024 343.552 341.504 32.768 51.2 73.216 115.2 73.216 205.824 0 152.064-113.152 275.968-252.416 275.968zM821.76 322.55999999999995c-87.552-122.88-272.896-263.168-282.112-269.824-8.704-6.656-18.944-10.24-28.672-10.24-10.24 0-19.968 3.072-28.672 10.24-9.216 6.656-190.976 148.48-282.112 274.944-29.184 46.08-75.776 103.424-75.776 184.32 0 136.192 75.776 231.936 200.192 231.936 69.12 0 144.384-66.048 186.368-123.392 42.496 57.344 117.248 123.392 186.368 123.392 124.928 0 205.824-95.744 205.824-231.936 0-80.896-51.712-143.872-81.408-189.44z"  horiz-adv-x="1024" />

    


  </font>
</defs>
</svg>
